<?xml version="1.0" encoding="UTF-8" standalone="no"?><!DOCTYPE svg PUBLIC "-//W3C//DTD SVG 1.1//EN" "http://www.w3.org/Graphics/SVG/1.1/DTD/svg11.dtd"><svg width="100%" height="100%" viewBox="0 0 512 512" version="1.1" xmlns="http://www.w3.org/2000/svg" xmlns:xlink="http://www.w3.org/1999/xlink" xml:space="preserve" xmlns:serif="http://www.serif.com/" style="fill-rule:evenodd;clip-rule:evenodd;stroke-linejoin:round;stroke-miterlimit:2;"><rect id="safari-pinned-tab" x="0" y="0" width="512" height="512" style="fill:none;"/><path d="M254.472,251.439l-1.141,4.257l9.729,-0l2.119,-7.905l2.432,-0l-2.118,7.905l19.912,-0l8.513,8.513l2.432,0l0,3.648l-2.432,0l-0,51.079c23.978,6.232 38.9,18.247 46.822,31.62l-22.499,-0c-8.568,-11.43 -28.635,-21.283 -63.848,-21.283c-35.213,0 -55.28,9.853 -63.848,21.283l-22.499,-0c7.922,-13.373 22.844,-25.388 46.822,-31.62l0,-51.079l-2.432,0l-0,-3.648l2.432,0l8.513,-8.513l6.751,-0c0.32,-1.629 1.762,-3.31 1.762,-5.473c0,-3.648 -3.092,-3.769 -3.307,-9.663c-0.031,-0.837 0.267,-2.498 0.267,-2.498c0.269,-2.667 2.107,-3.731 2.19,-6.41c0.077,-2.468 -3.619,-7.746 -4.282,-12.242c-1.042,-7.061 1.004,-12.028 1.004,-12.028c-2.996,15.015 6.966,16.856 6.966,24.089c-0,4.518 -3.16,6.323 1.363,14.446c1.714,3.079 1.939,5.02 1.788,6.332c-0.061,0.678 -0.227,1.417 -0.516,2.231c-0,-0 3.729,-0.548 4.256,-4.257c0.242,-1.698 -1.133,-3.067 -1.216,-4.256c-0.15,-2.163 1.216,-3.89 1.216,-3.649c0,3.649 3.292,5.198 3.292,8.238c0,2.475 -1.407,3.919 -2.075,4.532c-0,-0 5.872,-1.154 6.08,-6.081c0,0 0.945,4.05 -1.234,6.689l3.213,-0l2.118,-7.905l0.768,-0l-0,-55.943l-8.311,-0l0,51.686l-1.216,0l0,-51.686l-8.31,-0l-0,43.173l-1.216,0l-0,-43.173l-8.311,-0l0,35.876l-1.216,0l0,-35.876l-8.31,-0l-0,27.363l-1.216,0l-0,-27.363l-8.311,-0l0,20.675l-1.216,-0l0,-20.675l-8.31,-0l-0,15.202l-1.216,-0l-0,-29.188l9.729,0l-0,-9.121l9.729,0l0,-9.121l8.513,-0l0,-8.513l8.513,-0l0,-10.337l9.73,-0l-0,-8.513l9.729,-0l-0,44.015c-3.562,0.891 -6.786,4.152 -7.668,6.583c3.278,0.827 5.993,2.384 7.668,4.363c0.877,1.037 1.469,2.19 1.707,3.414c0.038,0.196 0.067,0.394 0.086,0.594c0.021,0.009 0.031,0.014 0.031,0.014c-0,-0 0.01,-0.005 0.031,-0.015c0.019,-0.2 0.048,-0.397 0.086,-0.593c0.238,-1.224 0.83,-2.377 1.707,-3.414c1.663,-1.965 4.351,-3.514 7.599,-4.346c-1.015,-2.238 -4.382,-5.528 -7.599,-6.532l0,-44.083l9.729,-0l0,8.513l9.73,-0l-0,10.337l8.513,-0l-0,8.513l8.513,-0l-0,9.121l9.729,0l-0,9.121l9.729,0l0,29.188l-1.216,-0l0,-15.202l-8.31,-0l-0,20.675l-1.217,-0l0,-20.675l-8.31,-0l0,27.363l-1.216,0l-0,-27.363l-8.31,-0l-0,35.876l-1.217,0l0,-35.876l-8.31,-0l0,43.173l-1.216,0l-0,-43.173l-8.31,-0l-0,51.686l-1.217,0l0,-51.686l-8.31,-0l0,55.943l0.448,-0l-0.448,1.673l0,1.975l-0.529,0Zm-34.475,-67.729c2.558,1.036 4.594,2.545 5.804,4.332c1.186,-1.788 3.183,-3.297 5.69,-4.333c-1.031,-0.922 -2.88,-1.59 -5.678,-1.59c-2.927,-0 -4.816,0.616 -5.816,1.591Zm57.202,-0.04c2.552,1.037 4.584,2.562 5.786,4.372c1.195,-1.765 3.196,-3.258 5.709,-4.293c-1.022,-0.943 -2.884,-1.63 -5.721,-1.63c-2.888,-0 -4.764,0.599 -5.774,1.551Zm59.284,13.651l19.459,-0l-22.499,16.418l10.945,-0l-21.282,13.377l10.337,1.217l-42.565,18.85l22.498,-14.594l-8.513,-0.608l19.459,-13.986l-10.946,0l23.107,-20.674Zm-165.396,-0l23.106,20.674l-10.945,0l19.458,13.986l-8.513,0.608l22.499,14.594l-42.565,-18.85l10.337,-1.217l-21.282,-13.377l10.945,-0l-22.499,-16.418l19.459,-0Zm239.504,113.179c-0.426,-3.093 -0.801,-7.177 -1.873,-8.708c-1.601,-2.286 -2.055,-3.615 -2.848,-2.832c-1.454,1.434 -2.388,7.172 -2.578,6.806c-1.384,-2.675 1.175,-20.234 0.625,-21.806c-0.551,-1.571 -1.187,-2.101 -1.306,-5.345c-0.049,-1.342 -0.835,-1.794 -1.576,-1.903c-0.045,-0.007 -0.093,-0.018 -0.143,-0.033l-0,47.109l-2.424,-0l-0,-47.076c-0.741,0.109 -1.527,0.561 -1.576,1.903c-0.12,3.244 -0.756,3.774 -1.306,5.345c-0.55,1.572 2.008,19.131 0.624,21.806c-0.189,0.366 -1.124,-5.372 -2.577,-6.806c-0.794,-0.783 -1.247,0.546 -2.848,2.832c-1.601,2.286 -1.647,10.262 -2.632,12.133c-0.484,-1.869 0.386,-23.049 1.5,-26.014c1.115,-2.964 2.83,-5.292 3.98,-6.676c1.15,-1.384 0.553,-2.269 1.226,-3.648c0.668,-1.37 1.799,-1.734 3.609,-1.823l-0,-9.515c-8.578,1.83 -9.706,10.385 -10.315,10.463c-0.269,-0.13 0.121,-6.127 0.121,-8.668c-0,-2.541 2.349,-3.835 4.909,-3.835c1.875,0 4.182,0.343 5.285,0.526l-0,-11.489c-0,-0.321 0.127,-0.629 0.354,-0.856c0.227,-0.228 0.536,-0.355 0.857,-0.355l0.001,-0c0.322,-0 0.63,0.127 0.857,0.355c0.227,0.227 0.355,0.535 0.355,0.856l-0,11.503c1.064,-0.179 3.445,-0.54 5.369,-0.54c2.163,0 4.176,0.924 4.748,2.744c0.572,-1.82 2.585,-2.744 4.749,-2.744c1.874,0 4.182,0.343 5.284,0.526l-0,-14.517c-0,-0.321 0.127,-0.629 0.354,-0.856c0.228,-0.227 0.536,-0.355 0.857,-0.355l0.001,0c0.322,0 0.63,0.128 0.857,0.355c0.227,0.227 0.355,0.535 0.355,0.856l-0,14.531c1.064,-0.179 3.445,-0.54 5.369,-0.54c2.56,0 4.91,1.294 4.91,3.835c-0,2.541 0.389,8.538 0.12,8.668c-0.611,-0.078 -1.745,-8.69 -10.399,-10.481l-0,9.528c0.033,0.001 0.068,0.002 0.104,0.003c1.833,0.086 2.975,0.445 3.648,1.825c0.673,1.379 0.076,2.264 1.226,3.648c1.149,1.384 2.865,3.712 3.979,6.676c1.115,2.965 1.985,24.145 1.5,26.014c-0.984,-1.871 -1.031,-9.847 -2.631,-12.133c-1.601,-2.286 -2.054,-3.615 -2.848,-2.832c-1.454,1.434 -2.388,7.172 -2.577,6.806c-1.384,-2.675 1.174,-20.234 0.624,-21.806c-0.551,-1.571 -1.187,-2.101 -1.306,-5.345c-0.049,-1.342 -0.835,-1.794 -1.576,-1.903c-0.045,-0.007 -0.093,-0.018 -0.143,-0.033l-0,50.162l-2.424,-0l-0,-50.129c-0.741,0.109 -1.527,0.561 -1.576,1.903c-0.12,3.244 -0.755,3.774 -1.306,5.345c-0.55,1.572 2.008,19.131 0.624,21.806c-0.189,0.366 -1.124,-5.372 -2.577,-6.806c-0.794,-0.783 -1.247,0.546 -2.848,2.832c-1.072,1.531 -1.447,5.615 -1.874,8.708c0.009,1.769 -0.033,3.029 -0.136,3.425c-0.115,-0.219 -0.217,-0.521 -0.311,-0.888c-0.093,0.367 -0.195,0.669 -0.31,0.888c-0.103,-0.396 -0.145,-1.656 -0.137,-3.425Zm0.043,-35.184c-0.977,-2.531 -3.232,-7.737 -9.742,-9.085l-0,9.528c0.033,0.001 0.068,0.002 0.104,0.003c1.833,0.086 2.975,0.445 3.648,1.825c0.673,1.379 0.076,2.264 1.226,3.648c1.149,1.384 2.865,3.712 3.979,6.676c0.467,1.24 0.89,5.667 1.189,10.534c0.3,-4.867 0.723,-9.294 1.189,-10.534c1.115,-2.964 2.831,-5.292 3.98,-6.676c1.15,-1.384 0.553,-2.269 1.226,-3.648c0.668,-1.37 1.799,-1.734 3.609,-1.823l-0,-9.515c-6.445,1.375 -8.685,6.547 -9.658,9.067c0.008,0.814 -0.014,1.358 -0.093,1.396c-0.08,-0.01 -0.169,-0.166 -0.282,-0.433c-0.113,0.267 -0.202,0.423 -0.281,0.433c-0.08,-0.038 -0.102,-0.582 -0.094,-1.396Zm-28.315,-35.92c0.33,-1.129 0.805,-2.246 1.442,-3.269c1.385,-2.225 8.745,-10.997 13.657,-15.402c2.734,-2.452 7.039,-5.61 10.606,-8.076c2.835,-1.961 5.207,-3.485 5.965,-3.884c0.671,-0.353 1.605,-0.547 2.659,-0.65c1.435,-0.14 3.109,-0.125 4.564,-0.258c0.266,-0.024 0.524,-0.054 0.771,-0.09c0.643,-0.095 1.926,-0.915 3.484,-2.001c3.914,-2.725 9.327,-7.213 10.723,-8.155c0.221,-0.149 0.384,-0.228 0.467,-0.254c0.143,-0.045 0.257,-0.04 0.336,-0.028c0.203,0.032 0.341,0.134 0.438,0.262c0.084,0.111 0.148,0.256 0.137,0.451l-0.003,0.048l-0.164,0.817l-0.116,0.134c-1.676,1.927 -10.045,9.963 -11.238,11.376c-0.073,0.087 -0.058,0.23 -0.06,0.398c-0.002,0.324 0.051,0.713 0.122,1.138c0.246,1.49 0.67,3.366 0.31,4.733c-0.226,0.857 -0.874,1.991 -1.811,3.266c-1.327,1.805 -3.239,3.926 -5.228,5.975c-2.905,2.993 -5.974,5.834 -7.596,7.304c-3.465,3.14 -10.58,9.698 -14.081,12.01c-1.275,0.842 -3.306,1.651 -5.458,2.262c-2.75,0.78 -5.694,1.235 -7.489,1.073c-0.993,-0.09 -1.682,-0.408 -1.994,-0.828c-0.451,-0.608 -0.788,-1.557 -0.942,-2.714c-0.214,-1.611 -0.084,-3.643 0.499,-5.638Zm9.911,6.576c1.803,-0.539 3.474,-1.217 4.553,-1.93c3.456,-2.283 10.472,-8.765 13.893,-11.865c1.624,-1.472 4.121,-3.659 7.026,-6.659c1.622,-1.676 1.279,-3.179 1.279,-3.179c-0,0 0.575,-0.031 1.375,0.441c0,0 3.101,-4.844 1.483,-11.018c-10.904,9.396 -21.241,18.897 -29.049,26.903c0.08,3.063 -0.322,5.916 -0.56,7.307Zm1.351,-19.176c-3.932,4.199 -7.48,8.515 -8.448,10.069c-0.48,0.772 -0.856,1.603 -1.139,2.45c1.531,-0.363 4.618,-0.972 8.275,-1.027c8.929,-9.157 21.157,-20.263 33.762,-30.934c-1.666,1.046 -4.748,2.83 -6.112,2.895c-1.65,0.404 -5.044,0.145 -6.95,0.898c-1.299,0.835 -3.096,2.041 -5.04,3.405c0,0 0.36,0.269 0.533,0.935c-0.482,-0.047 -2.753,0.614 -3.554,1.195c-2.626,1.902 -4.499,3.409 -6.388,5.103c-0.783,0.702 -1.63,1.518 -2.505,2.4c0.441,0.368 0.73,0.887 0.717,1.595c-0.649,-0.141 -2.779,0.618 -3.151,1.016Zm-295.464,-19.414c7.297,-0.176 12.1,8.13 14.414,7.947c1.396,-0.111 2.843,-0.438 3.041,-1.825c0.312,-2.196 -0.609,-6.827 0.608,-9.729c0.805,-1.922 2.993,-3.04 5.472,-3.04c2.479,-0 3.639,0.598 4.865,1.824c1.225,1.225 -0,4.358 0.608,6.081c0.58,1.644 2.162,2.804 1.824,4.118c-0.337,1.315 -5.067,1.152 -6.689,1.962c-1.057,0.529 -1.853,0.546 -1.824,3.041c0.029,2.494 1.612,4.278 1.216,6.689c-1.036,6.315 -9.369,7.669 -10.157,10.571c-1.253,4.614 -0.615,12.411 -0.18,16.184c0.169,1.467 3.49,1.484 3.22,3.04c-0.269,1.556 -1.91,1.217 -3.648,1.217c-1.738,-0 -4.321,-2.172 -4.865,-4.257c-0.739,-2.838 0,-8.513 0.428,-12.77c0.396,-3.937 -1.464,-8.278 -5.9,-8.886c-2.082,-0.286 -6.984,-1.773 -11.734,2.06c-2.432,1.962 -4.163,5.51 -4.256,8.043c-0.094,2.532 0.038,4.435 0.788,7.905c0.788,3.648 5.574,6.587 5.473,7.905c-0.102,1.317 -4.004,0.91 -5.653,-0c-1.652,-0.913 -3.482,-2.615 -4.257,-5.473c-0.775,-2.859 -2.747,-9.042 -2.252,-12.162c0.495,-3.119 1.824,-6.08 1.644,-8.513c-0.123,-1.657 -2.252,-3.414 -4.865,-5.472c-1.235,-0.974 -1.447,-2.38 0,-3.041c1.448,-0.66 3.829,-12.965 22.679,-13.419Zm26.788,-1.166c-0.34,-0 -0.615,0.373 -0.615,0.834c0,0.46 0.275,0.833 0.615,0.833c0.339,0 0.614,-0.373 0.614,-0.833c0,-0.461 -0.275,-0.834 -0.614,-0.834Zm-39.808,73.709l26.847,-0c3.779,-0 9.766,1.358 11.932,2.983c3.977,2.983 1.714,13.835 -0,16.903c-1.714,3.069 -1.593,2.786 -1.989,5.966c-0.395,3.181 -3.99,17.899 -20.881,17.899c-5.411,-0 -12.404,-0.783 -15.922,-3.978c-3.518,-3.195 -4.972,-5.966 -4.972,-10.938c0,-3.421 1.431,-5.836 2.996,-7.954c1.565,-2.118 3.965,-5.966 3.977,-8.949c0.012,-2.835 -1.817,-8.593 -2.983,-9.944c-1.165,-1.35 -1.132,-2.131 0.995,-1.988Zm27.841,12.926c-0.007,2.83 0.994,6.96 3.978,6.96c2.319,0 4.746,-6.156 4.971,-8.949c0.225,-2.792 -1.779,-5.021 -3.99,-4.971c-2.21,0.05 -4.941,0.4 -4.959,6.96Zm16.382,-125.197l-38.981,-38.58c-0.418,-0.414 -0.421,-1.088 -0.008,-1.505l12.501,-12.63c4.836,-4.887 8.201,-7.861 10.063,-8.948c2.997,-1.774 6.343,-2.437 10.042,-1.974c3.662,0.458 7.152,2.294 10.445,5.553c2.535,2.509 4.197,5.087 5.014,7.717c0.825,2.656 1.019,5.194 0.598,7.612c-0.42,2.408 -1.204,4.506 -2.342,6.298c-0.003,0.005 -0.007,0.011 -0.011,0.017c-1.514,2.288 -4.062,5.249 -7.652,8.877l-4.33,4.375l13.948,13.805c0.417,0.413 0.421,1.087 0.007,1.505l-7.789,7.87c-0.414,0.418 -1.088,0.421 -1.505,0.008Zm-22.343,-40.688l9.548,9.45l3.515,-3.551c2.934,-2.964 4.727,-5.117 5.326,-6.502c0.538,-1.241 0.692,-2.484 0.452,-3.729c-0.241,-1.248 -0.864,-2.358 -1.854,-3.337c-1.211,-1.199 -2.554,-1.849 -4.046,-1.917c-1.51,-0.068 -2.909,0.355 -4.2,1.262c-0.003,0.001 -0.005,0.003 -0.007,0.004c-1.08,0.745 -2.982,2.508 -5.72,5.274l-3.014,3.046Zm59.935,6.577l-28.615,-46.788c-0.307,-0.501 -0.149,-1.156 0.352,-1.463l9.447,-5.778c0.502,-0.306 1.157,-0.148 1.463,0.353l28.615,46.788c0.307,0.501 0.149,1.156 -0.352,1.463l-9.447,5.777c-0.501,0.307 -1.156,0.149 -1.463,-0.352Zm46.647,-43.33l11.263,0.03c0.572,0.002 1.04,0.455 1.061,1.026c0.233,6.474 -1.131,11.749 -4.034,15.839c-2.906,4.094 -7.279,7.081 -13.145,8.924c-7.249,2.277 -13.984,1.66 -20.207,-1.827c-6.181,-3.463 -10.641,-9.44 -13.32,-17.972c-2.831,-9.011 -2.66,-16.74 0.428,-23.188c3.11,-6.494 8.471,-10.955 16.11,-13.354c6.689,-2.101 12.742,-1.808 18.162,0.833c3.233,1.563 6.179,4.328 8.806,8.329c0.159,0.243 0.213,0.54 0.148,0.822c-0.065,0.283 -0.242,0.527 -0.491,0.676l-9.673,5.783c-0.244,0.145 -0.536,0.188 -0.811,0.117c-0.276,-0.071 -0.511,-0.249 -0.654,-0.494c-1.34,-2.294 -3.12,-3.884 -5.357,-4.753c-2.237,-0.869 -4.635,-0.888 -7.192,-0.085c-3.562,1.119 -6.057,3.297 -7.472,6.55c-1.463,3.364 -1.194,8.003 0.665,13.922c1.979,6.3 4.456,10.47 7.562,12.432c2.988,1.888 6.227,2.277 9.715,1.182c2.547,-0.8 4.487,-2.293 5.813,-4.488c1.367,-2.261 1.861,-5.318 1.559,-9.157c-0.023,-0.296 0.078,-0.589 0.28,-0.807c0.202,-0.218 0.486,-0.341 0.784,-0.34Zm27.941,-39.698l11.068,0.364c0.587,0.019 1.048,0.511 1.028,1.098l-0.976,29.689c-0.152,4.597 -0.127,7.584 0.095,8.961c0.354,1.993 1.296,3.616 2.83,4.867c1.582,1.291 3.791,1.947 6.605,2.04c2.84,0.093 5.012,-0.366 6.493,-1.479c1.415,-1.064 2.299,-2.394 2.632,-4.001c0.378,-1.822 0.631,-4.86 0.771,-9.113l0.998,-30.324c0.019,-0.587 0.511,-1.048 1.098,-1.028l11.068,0.364c0.587,0.019 1.048,0.511 1.028,1.098l-0.947,28.791c-0.22,6.689 -0.69,11.403 -1.389,14.145c-0.734,2.881 -2,5.288 -3.783,7.228c-1.774,1.932 -4.106,3.448 -7.007,4.533c-2.834,1.06 -6.502,1.532 -11.007,1.384c-5.427,-0.179 -9.517,-0.967 -12.28,-2.312c-2.83,-1.379 -5.039,-3.129 -6.639,-5.235c-1.612,-2.122 -2.641,-4.329 -3.1,-6.613l-0.001,-0.005c-0.63,-3.219 -0.851,-7.947 -0.645,-14.184l0.962,-29.24c0.019,-0.587 0.511,-1.048 1.098,-1.028Zm52.854,58.871l21.012,-50.66c0.225,-0.543 0.848,-0.8 1.391,-0.575l21.528,8.929c5.572,2.311 9.415,4.479 11.552,6.463c2.247,2.086 3.651,4.717 4.202,7.897c0.543,3.133 0.16,6.296 -1.165,9.489c-1.687,4.07 -4.292,6.921 -7.784,8.58c-2.826,1.343 -6.166,1.738 -10.021,1.144c0.979,1.539 1.749,3.063 2.313,4.571c0.814,2.181 1.641,5.792 2.464,10.837l2.086,12.447c0.064,0.382 -0.084,0.768 -0.387,1.009c-0.303,0.241 -0.713,0.298 -1.07,0.15l-12.233,-5.074c-0.328,-0.135 -0.566,-0.426 -0.636,-0.773l-2.823,-14.091l-0,-0.003c-0.975,-4.939 -1.72,-8.11 -2.253,-9.511c-0.475,-1.249 -1.107,-2.243 -1.917,-2.969c-0.866,-0.777 -2.409,-1.603 -4.61,-2.515l-1.09,-0.453l-8.364,20.166c-0.225,0.543 -0.848,0.8 -1.391,0.575l-10.228,-4.242c-0.543,-0.225 -0.801,-0.848 -0.576,-1.391Zm24.728,-25.16l6.585,2.731c4.737,1.965 7.767,3.023 9.112,3.112c1.151,0.076 2.187,-0.181 3.105,-0.782c0.948,-0.62 1.675,-1.591 2.212,-2.888c0.596,-1.435 0.722,-2.751 0.322,-3.951c-0.401,-1.204 -1.271,-2.197 -2.583,-3.019c-0.794,-0.459 -3.208,-1.518 -7.237,-3.189l-7,-2.903l-4.516,10.889Zm24.933,48.598l32.239,-44.368c0.345,-0.476 1.011,-0.581 1.486,-0.235l8.959,6.509c0.475,0.346 0.581,1.011 0.235,1.486l-32.239,44.369c-0.346,0.475 -1.011,0.58 -1.487,0.235l-8.958,-6.509c-0.476,-0.346 -0.581,-1.011 -0.235,-1.487Zm31.424,-1.273l7.696,7.613c0.394,0.39 0.423,1.018 0.066,1.442c-2.176,2.586 -3.319,5.06 -3.352,7.46c-0.033,2.38 0.965,4.739 2.93,7.101c2.084,2.505 4.153,3.996 6.27,4.384c1.965,0.361 3.614,0.024 4.931,-1.072c0.791,-0.657 1.281,-1.442 1.45,-2.368c0.187,-1.025 -0.063,-2.361 -0.672,-4.019c-0.481,-1.272 -1.746,-4.024 -3.791,-8.255c-2.765,-5.712 -4.048,-10.245 -3.926,-13.578c0.179,-4.842 2.063,-8.746 5.637,-11.72c2.307,-1.918 5.006,-3.062 8.102,-3.425c3.084,-0.361 6.172,0.239 9.258,1.821c2.996,1.535 5.902,3.977 8.702,7.343c4.604,5.535 6.806,10.732 6.707,15.548c-0.101,4.899 -2.138,9.142 -6.14,12.713c-0.436,0.389 -1.104,0.354 -1.496,-0.078l-7.456,-8.202c-0.361,-0.398 -0.37,-1.003 -0.019,-1.41c1.654,-1.924 2.509,-3.747 2.466,-5.512c-0.043,-1.797 -1.014,-3.756 -2.816,-5.922c-1.885,-2.266 -3.804,-3.683 -5.802,-4.191l-0.001,-0.001c-1.048,-0.268 -1.981,-0.066 -2.798,0.613c-0.755,0.629 -1.117,1.495 -1.123,2.582c-0.007,1.741 1.222,4.957 3.578,9.688c2.52,5.061 4.079,9.052 4.698,11.966c0.647,3.048 0.497,5.975 -0.441,8.783c-0.936,2.799 -2.808,5.389 -5.645,7.75c-2.572,2.139 -5.574,3.431 -9.008,3.87c-3.439,0.44 -6.796,-0.188 -10.067,-1.895c-3.173,-1.656 -6.344,-4.368 -9.496,-8.157c-4.631,-5.567 -6.857,-10.931 -6.766,-16.055c0.091,-5.15 2.339,-10.091 6.804,-14.793c0.197,-0.207 0.469,-0.327 0.755,-0.331c0.286,-0.005 0.562,0.106 0.765,0.307Zm-272.777,280.225l32.945,-43.846c0.353,-0.47 1.02,-0.565 1.49,-0.212l14.207,10.675c5.496,4.13 8.899,7.061 10.228,8.758c2.163,2.729 3.274,5.955 3.316,9.683c0.042,3.69 -1.304,7.396 -4.087,11.1c-2.143,2.852 -4.472,4.848 -6.967,6.013c-2.521,1.178 -5.009,1.714 -7.461,1.624c-2.443,-0.09 -4.628,-0.583 -6.557,-1.467c-0.006,-0.003 -0.012,-0.006 -0.018,-0.009c-2.472,-1.19 -5.752,-3.313 -9.832,-6.379l-4.922,-3.698l-11.788,15.689c-0.353,0.47 -1.02,0.564 -1.49,0.211l-8.853,-6.652c-0.47,-0.353 -0.564,-1.02 -0.211,-1.49Zm37.287,-27.648l-8.07,10.741l3.994,3.001c3.334,2.506 5.71,3.991 7.163,4.397c1.303,0.364 2.555,0.349 3.757,-0.058c1.203,-0.408 2.218,-1.175 3.054,-2.288c1.024,-1.362 1.487,-2.781 1.352,-4.269c-0.137,-1.505 -0.746,-2.834 -1.819,-3.991c-0.002,-0.002 -0.004,-0.004 -0.006,-0.006c-0.884,-0.968 -2.888,-2.615 -5.999,-4.952l-3.426,-2.575Zm34.056,10.676l10.373,3.877c0.551,0.205 0.83,0.818 0.625,1.369l-10.398,27.825c-1.61,4.309 -2.54,7.148 -2.768,8.523c-0.301,2.002 0.074,3.841 1.128,5.516c1.088,1.728 2.972,3.055 5.61,4.04c2.661,0.995 4.866,1.253 6.625,0.67c1.681,-0.557 2.943,-1.535 3.771,-2.951c0.94,-1.607 2.149,-4.406 3.638,-8.391l10.621,-28.421c0.205,-0.551 0.818,-0.83 1.369,-0.624l10.373,3.876c0.55,0.205 0.83,0.819 0.624,1.369l-10.083,26.984c-2.343,6.269 -4.292,10.587 -5.829,12.963c-1.615,2.496 -3.583,4.373 -5.892,5.643c-2.298,1.264 -4.992,1.957 -8.087,2.06c-3.024,0.101 -6.651,-0.622 -10.873,-2.2c-5.087,-1.901 -8.712,-3.952 -10.901,-6.109c-2.242,-2.209 -3.777,-4.573 -4.622,-7.08c-0.85,-2.525 -1.121,-4.944 -0.827,-7.256l0,-0.005c0.43,-3.252 1.729,-7.803 3.914,-13.649l10.24,-27.404c0.206,-0.551 0.819,-0.83 1.369,-0.625Zm42.138,72.177l4.151,-54.687c0.044,-0.586 0.555,-1.025 1.141,-0.98l40.549,3.077c0.587,0.045 1.026,0.556 0.981,1.142l-0.702,9.251c-0.045,0.586 -0.556,1.025 -1.142,0.981l-28.446,-2.159l-0.759,10.001l26.394,2.004c0.586,0.044 1.025,0.555 0.981,1.141l-0.7,9.214c-0.044,0.586 -0.555,1.025 -1.141,0.981l-26.395,-2.004l-0.968,12.762l29.49,2.239c0.586,0.044 1.025,0.555 0.981,1.141l-0.7,9.214c-0.044,0.586 -0.555,1.025 -1.141,0.981l-41.594,-3.157c-0.586,-0.045 -1.025,-0.556 -0.98,-1.142Zm51.989,-52.481l21.508,-4.244c4.336,-0.856 7.605,-1.308 9.807,-1.367c2.322,-0.062 4.488,0.339 6.5,1.197c2.014,0.86 3.814,2.175 5.394,3.954c1.595,1.794 2.645,3.949 3.142,6.469c0.538,2.726 0.297,5.372 -0.723,7.938c-0.718,1.806 -1.749,3.382 -3.096,4.726c2.654,0.567 4.9,1.671 6.745,3.297c2.39,2.106 3.923,4.831 4.584,8.182c0.514,2.605 0.411,5.258 -0.314,7.958c-0.73,2.718 -2.009,5.024 -3.827,6.922c-1.811,1.89 -4.217,3.32 -7.232,4.267l-0.002,0.001c-1.786,0.558 -6.164,1.553 -13.134,2.979l-0.007,0.002l-18.315,3.614c-0.577,0.114 -1.136,-0.261 -1.25,-0.838l-10.618,-53.807c-0.114,-0.576 0.261,-1.136 0.838,-1.25Zm18.31,30.092l2.427,12.3l9.013,-1.779c3.802,-0.75 6.196,-1.321 7.176,-1.736c0.008,-0.004 0.017,-0.007 0.026,-0.011c1.321,-0.52 2.324,-1.341 2.995,-2.477c0.669,-1.131 0.812,-2.508 0.494,-4.122c-0.273,-1.379 -0.823,-2.491 -1.681,-3.32c-0.851,-0.822 -1.951,-1.313 -3.289,-1.501c-1.525,-0.213 -4.667,0.18 -9.433,1.121l-7.728,1.525Zm-4.223,-21.398l2.044,10.354l6.076,-1.199c4.167,-0.822 6.746,-1.389 7.733,-1.709c1.557,-0.503 2.717,-1.28 3.45,-2.372c0.703,-1.048 0.889,-2.291 0.607,-3.719c-0.272,-1.378 -0.85,-2.434 -1.779,-3.145c-0.937,-0.717 -2.189,-0.981 -3.736,-0.867c-1.091,0.09 -4.156,0.637 -9.199,1.632l-5.196,1.025Zm59.988,30.659l-24.744,-48.441c-0.268,-0.524 -0.06,-1.165 0.463,-1.432l9.862,-5.038c0.523,-0.267 1.164,-0.059 1.432,0.464l20.056,39.265l23.573,-12.041c0.524,-0.268 1.165,-0.06 1.432,0.463l4.204,8.229c0.267,0.524 0.059,1.165 -0.464,1.432l-34.382,17.563c-0.524,0.267 -1.165,0.06 -1.432,-0.464Zm29.763,-45.333c-3.988,-4.153 -6.703,-8.243 -8.167,-12.254l-0.002,-0.005c-1.077,-2.996 -1.607,-6.105 -1.587,-9.327c0.019,-3.248 0.616,-6.21 1.78,-8.888c1.514,-3.529 3.931,-6.899 7.264,-10.099c6.061,-5.82 12.726,-8.574 19.975,-8.308c7.222,0.265 14.055,3.699 20.462,10.371c6.354,6.617 9.492,13.537 9.483,20.729c-0.009,7.22 -3.011,13.743 -9.055,19.547c-6.117,5.874 -12.784,8.652 -19.978,8.387c-7.171,-0.264 -13.907,-3.626 -20.175,-10.153Zm9.506,-9.647c4.081,4.249 8.13,6.574 12.198,6.882c3.977,0.302 7.439,-0.97 10.392,-3.805c2.95,-2.833 4.357,-6.218 4.209,-10.16c-0.153,-4.039 -2.371,-8.211 -6.553,-12.566c-4.13,-4.3 -8.123,-6.653 -12.04,-6.959c-3.829,-0.298 -7.262,1.036 -10.313,3.966c-3.054,2.932 -4.524,6.336 -4.382,10.225c0.145,3.977 2.343,8.099 6.489,12.417Z"/></svg>